<?xml version="1.0" encoding="utf-8"?>
<!-- Generator: Adobe Illustrator 28.0.0, SVG Export Plug-In . SVG Version: 6.00 Build 0)  -->
<svg version="1.1" id="Layer_1" xmlns="http://www.w3.org/2000/svg" xmlns:xlink="http://www.w3.org/1999/xlink" x="0px" y="0px"
	 viewBox="0 0 595.3 841.9" style="enable-background:new 0 0 595.3 841.9;" xml:space="preserve">
<style type="text/css">
	.st0{fill:#1E3B60;}
</style>
<path class="st0" d="M516,444.1l-41.5,0.1c-5.1,0-9.2,4.1-9.2,9.2l0,6.7l21.4,0c-5.6,12-17.8,20.2-31.9,20.3
	c-19.5,0-35.3-15.7-35.3-35.2c0-19.4,15.4-35.1,34.8-35.3c13.5-0.2,25.3,7.3,31.4,18.4l27.9-0.1c-7.4-25.6-31-44.4-59-44.3
	c-33.8,0.1-61.2,27.5-61.1,61.4c0.1,33.8,27.5,61.2,61.4,61.1c28.6-0.1,52.6-19.7,59.3-46.3c1.2-4.8,1.8-9.9,1.8-15.1
	C516,444.7,516,444.4,516,444.1z"/>
<path class="st0" d="M232,511.2l-4.8-107.5c4.9-2.6,10.6-4.6,23.9-4.8c14.2-0.1,19,2.5,24,6.1c-2.5,45.4-3.3,52.9-6.1,97
	c-5.2,1.9-11.1,3.8-17.7,5.5C244.4,509.4,237.9,510.5,232,511.2z"/>
<path class="st0" d="M151.1,432.9l-2-44.4c0,0-45.8,21.7-43.7,71c1.9,42,52.4,46.8,52.4,46.8l-2.5-30.3l22.7,37.8
	c6.2,1.2,13.6,2.2,21.9,2.6c8.6,0.3,16.2-0.2,22.6-1c-13.2-24.8-26.4-49.7-39.6-74.5l27.2-73.7c-6.9,0.8-15.1,2.3-24.1,5.1
	c-9.2,2.8-17,6.3-23.2,9.6C159,398.8,155.1,415.8,151.1,432.9z"/>
<path class="st0" d="M293.4,369.7l-14.5,129.4c5.6-1.6,15.8-4.6,23.8-6.7c7.2-1.9,13.7-3.1,21.6-3.7l3.7-52l14.9,52.5
	c2,0.1,4.9,0.3,8.5,0.7c5.3,0.6,9.1,1.4,15.7,2.8c5.1,1.1,10.2,2.1,15.3,3.2c4.8,1,11.7,2.5,20.2,4.2c-4.7-5.4-11.2-14.3-15.8-26.7
	c-8.7-23.7-4.1-44.1-3.1-48.1c1.3-5.2,4.2-16.6,13.3-28.2c4.3-5.4,8.7-9.3,12-11.8c-6.7,0.2-13.3,0.5-22.8,0.6
	c-9.6,0-18.5,0.5-24.9,0.2l-7.7,59.8l-9.9-61.4c-8.4-1.6-14.9-3.2-25.3-6.3C307.5,374.1,301.1,372.3,293.4,369.7z"/>
<path class="st0" d="M227.6,394.9l0.5-0.1c15.6-2.9,31.7-2.2,47,1.9l1.7,0.5l1-19.6l-6.7,3.5c-2.4,1.2-5.3,0.6-6.9-1.6l-10.7-14.3
	l-11.8,13c-1.9,2-5,2.4-7.2,0.8l-5.4-3.9L227.6,394.9z"/>
</svg>
